<svg xmlns="http://www.w3.org/2000/svg" viewBox="0 0 200 200">
  <rect width="200" height="200" rx="32" fill="#3a7d6b"/>
  <g transform="translate(100,105)" fill="white">
    <!-- Trunk (hand shape) -->
    <path d="M-8,80 Q-6,40 -10,10 Q-12,-5 0,-10 Q12,-5 10,10 Q6,40 8,80 Z" opacity="0.95"/>
    <!-- Main branches -->
    <path d="M0,-10 Q-25,-30 -35,-45" stroke="white" stroke-width="6" fill="none" stroke-linecap="round"/>
    <path d="M0,-10 Q25,-30 35,-45" stroke="white" stroke-width="6" fill="none" stroke-linecap="round"/>
    <path d="M-5,5 Q-35,-10 -50,-20" stroke="white" stroke-width="5" fill="none" stroke-linecap="round"/>
    <path d="M5,5 Q35,-10 50,-20" stroke="white" stroke-width="5" fill="none" stroke-linecap="round"/>
    <path d="M0,-10 Q0,-40 0,-55" stroke="white" stroke-width="6" fill="none" stroke-linecap="round"/>
    <!-- Leaves -->
    <ellipse cx="-35" cy="-50" rx="12" ry="7" transform="rotate(-40,-35,-50)"/>
    <ellipse cx="-50" cy="-25" rx="12" ry="7" transform="rotate(-20,-50,-25)"/>
    <ellipse cx="-55" cy="-40" rx="11" ry="6" transform="rotate(-30,-55,-40)"/>
    <ellipse cx="35" cy="-50" rx="12" ry="7" transform="rotate(40,35,-50)"/>
    <ellipse cx="50" cy="-25" rx="12" ry="7" transform="rotate(20,50,-25)"/>
    <ellipse cx="55" cy="-40" rx="11" ry="6" transform="rotate(30,55,-40)"/>
    <ellipse cx="0" cy="-60" rx="10" ry="6" transform="rotate(0,0,-60)"/>
    <ellipse cx="-18" cy="-55" rx="11" ry="6" transform="rotate(-20,-18,-55)"/>
    <ellipse cx="18" cy="-55" rx="11" ry="6" transform="rotate(20,18,-55)"/>
    <ellipse cx="-25" cy="-38" rx="10" ry="6" transform="rotate(-35,-25,-38)"/>
    <ellipse cx="25" cy="-38" rx="10" ry="6" transform="rotate(35,25,-38)"/>
    <ellipse cx="-42" cy="-32" rx="10" ry="6" transform="rotate(-25,-42,-32)"/>
    <ellipse cx="42" cy="-32" rx="10" ry="6" transform="rotate(25,42,-32)"/>
    <ellipse cx="0" cy="-70" rx="9" ry="5.5"/>
    <ellipse cx="-12" cy="-65" rx="9" ry="5.5" transform="rotate(-15,-12,-65)"/>
    <ellipse cx="12" cy="-65" rx="9" ry="5.5" transform="rotate(15,12,-65)"/>
  </g>
</svg>